<svg width="584" height="140" viewBox="0 0 584 140" fill="none" xmlns="http://www.w3.org/2000/svg">
<path d="M20 20H70V70L20 20Z" fill="#9A2479"/>
<path d="M70 70L70 20L120 20L70 70Z" fill="#EFBD43"/>
<path d="M70 120L20 120L20 70L70 120Z" fill="#F0544A"/>
<path d="M120 70L120 120L70 120L120 70Z" fill="#24A9DA"/>
<path d="M166.999 18.8182V61H160.634V18.8182H166.999ZM180.695 18.8182L190.788 35.3161H191.117L201.21 18.8182H208.583L195.442 39.9091L208.665 61H201.251L191.117 44.7287H190.788L180.654 61H173.239L186.689 39.9091L173.322 18.8182H180.695ZM250.404 39.9091C250.404 44.4129 249.581 48.285 247.933 51.5256C246.285 54.7524 244.026 57.2377 241.157 58.9815C238.301 60.7116 235.053 61.5767 231.414 61.5767C227.762 61.5767 224.501 60.7116 221.631 58.9815C218.775 57.2377 216.523 54.7455 214.875 51.505C213.228 48.2644 212.404 44.3991 212.404 39.9091C212.404 35.4053 213.228 31.54 214.875 28.3132C216.523 25.0727 218.775 22.5874 221.631 20.8572C224.501 19.1134 227.762 18.2415 231.414 18.2415C235.053 18.2415 238.301 19.1134 241.157 20.8572C244.026 22.5874 246.285 25.0727 247.933 28.3132C249.581 31.54 250.404 35.4053 250.404 39.9091ZM244.102 39.9091C244.102 36.4763 243.546 33.5859 242.434 31.2379C241.335 28.8762 239.825 27.0911 237.902 25.8828C235.994 24.6607 233.831 24.0497 231.414 24.0497C228.984 24.0497 226.815 24.6607 224.906 25.8828C222.997 27.0911 221.487 28.8762 220.375 31.2379C219.276 33.5859 218.727 36.4763 218.727 39.9091C218.727 43.3419 219.276 46.2391 220.375 48.6009C221.487 50.9489 222.997 52.7339 224.906 53.956C226.815 55.1643 228.984 55.7685 231.414 55.7685C233.831 55.7685 235.994 55.1643 237.902 53.956C239.825 52.7339 241.335 50.9489 242.434 48.6009C243.546 46.2391 244.102 43.3419 244.102 39.9091ZM258.339 61V18.8182H273.375C276.643 18.8182 279.355 19.3812 281.51 20.5071C283.68 21.633 285.3 23.1915 286.371 25.1825C287.442 27.1598 287.978 29.446 287.978 32.0412C287.978 34.6226 287.435 36.8951 286.351 38.8587C285.28 40.8085 283.659 42.3258 281.49 43.4105C279.334 44.4953 276.622 45.0376 273.354 45.0376H261.964V39.5589H272.778C274.837 39.5589 276.512 39.2637 277.803 38.6733C279.108 38.0829 280.062 37.2247 280.666 36.0987C281.27 34.9728 281.572 33.6203 281.572 32.0412C281.572 30.4484 281.263 29.0684 280.645 27.9013C280.041 26.7341 279.087 25.8416 277.782 25.2237C276.492 24.5921 274.796 24.2763 272.695 24.2763H264.704V61H258.339ZM279.162 41.9688L289.584 61H282.334L272.118 41.9688H279.162ZM299.285 61H292.53L307.709 18.8182H315.062L330.242 61H323.486L311.561 26.4801H311.231L299.285 61ZM300.418 44.4815H322.333V49.8366H300.418V44.4815Z" fill="#111111"/>
<path d="M190.788 92C190.403 90.5994 189.84 89.2881 189.099 88.066C188.357 86.8303 187.437 85.7524 186.339 84.8324C185.254 83.8987 183.998 83.1709 182.57 82.6491C181.155 82.1274 179.576 81.8665 177.832 81.8665C175.086 81.8665 172.628 82.5805 170.459 84.0085C168.289 85.4366 166.573 87.4962 165.31 90.1875C164.06 92.8788 163.435 96.1193 163.435 99.9091C163.435 103.685 164.067 106.919 165.33 109.61C166.594 112.301 168.324 114.368 170.521 115.81C172.731 117.238 175.258 117.952 178.1 117.952C180.695 117.952 182.988 117.375 184.979 116.222C186.97 115.068 188.522 113.42 189.634 111.278C190.76 109.136 191.309 106.589 191.282 103.637L192.518 104.028H179.006V100.568H195.031V104.028C195.031 107.626 194.303 110.736 192.847 113.359C191.392 115.981 189.394 118.007 186.854 119.435C184.313 120.863 181.396 121.577 178.1 121.577C174.42 121.577 171.2 120.691 168.44 118.92C165.68 117.135 163.531 114.622 161.994 111.381C160.469 108.127 159.707 104.303 159.707 99.9091C159.707 96.5999 160.147 93.6134 161.026 90.9496C161.904 88.2857 163.147 86.0064 164.754 84.1115C166.374 82.2166 168.289 80.768 170.5 79.7656C172.711 78.7495 175.155 78.2415 177.832 78.2415C180.139 78.2415 182.247 78.6053 184.156 79.3331C186.078 80.0608 187.767 81.0632 189.222 82.3402C190.692 83.6035 191.893 85.0658 192.827 86.7273C193.774 88.375 194.413 90.1326 194.742 92H190.788ZM204.593 121V78.8182H218.207C221.2 78.8182 223.699 79.3606 225.704 80.4453C227.722 81.5163 229.24 83.0062 230.256 84.9148C231.286 86.8097 231.801 88.986 231.801 91.4439C231.801 93.9018 231.286 96.0713 230.256 97.9524C229.24 99.8336 227.729 101.303 225.725 102.36C223.72 103.417 221.235 103.946 218.269 103.946H206.673V100.424H218.166C220.363 100.424 222.189 100.06 223.644 99.3324C225.114 98.6046 226.205 97.5679 226.919 96.2223C227.647 94.8767 228.011 93.2839 228.011 91.4439C228.011 89.6039 227.647 87.9974 226.919 86.6243C226.191 85.2375 225.093 84.1664 223.624 83.4112C222.168 82.656 220.328 82.2784 218.104 82.2784H208.444V121H204.593ZM223.191 101.969L233.572 121H229.123L218.845 101.969H223.191ZM241.244 121H237.207L252.552 78.8182H256.671L272.015 121H267.979L254.756 83.8232H254.467L241.244 121ZM244.148 104.832H265.074V108.292H244.148V104.832ZM291.603 121H279.245V78.8182H292.344C296.367 78.8182 299.807 79.6558 302.663 81.331C305.533 83.0062 307.73 85.4091 309.254 88.5398C310.778 91.6705 311.54 95.4259 311.54 99.8061C311.54 104.228 310.758 108.024 309.192 111.196C307.641 114.354 305.375 116.778 302.395 118.467C299.43 120.156 295.832 121 291.603 121ZM283.096 117.54H291.376C295.001 117.54 298.036 116.826 300.48 115.398C302.924 113.97 304.757 111.931 305.979 109.281C307.201 106.63 307.812 103.472 307.812 99.8061C307.799 96.1674 307.194 93.0367 306 90.4141C304.819 87.7914 303.061 85.7798 300.727 84.3793C298.407 82.9787 295.537 82.2784 292.118 82.2784H283.096V117.54ZM320.876 121V78.8182H345.344V82.2784H324.727V98.1584H344.047V101.619H324.727V117.54H345.756V121H320.876ZM355.313 78.8182H359.762L375.065 115.562H375.436L390.739 78.8182H395.188V121H391.563V86.9538H391.234L377.001 121H373.5L359.268 86.9538H358.938V121H355.313V78.8182ZM406.465 121H402.428L417.772 78.8182H421.892L437.236 121H433.199L419.976 83.8232H419.688L406.465 121ZM409.369 104.832H430.295V108.292H409.369V104.832ZM467.369 89.3636C467.136 87.0156 466.099 85.1482 464.259 83.7614C462.419 82.3745 460.105 81.6811 457.318 81.6811C455.354 81.6811 453.624 82.0175 452.127 82.6903C450.645 83.3632 449.477 84.2969 448.626 85.4915C447.788 86.6723 447.37 88.018 447.37 89.5284C447.37 90.6406 447.61 91.6155 448.091 92.4531C448.571 93.2907 449.217 94.0116 450.027 94.6158C450.85 95.2062 451.757 95.7143 452.745 96.1399C453.748 96.5656 454.757 96.9226 455.773 97.2109L460.222 98.4879C461.568 98.8587 462.913 99.3324 464.259 99.9091C465.605 100.486 466.833 101.214 467.946 102.092C469.072 102.957 469.971 104.022 470.644 105.285C471.33 106.534 471.674 108.038 471.674 109.795C471.674 112.047 471.09 114.073 469.923 115.871C468.756 117.67 467.081 119.098 464.897 120.156C462.714 121.199 460.098 121.721 457.05 121.721C454.18 121.721 451.688 121.247 449.574 120.3C447.459 119.339 445.797 118.013 444.589 116.325C443.381 114.636 442.701 112.679 442.55 110.455H446.505C446.642 112.116 447.191 113.523 448.152 114.677C449.114 115.83 450.363 116.709 451.901 117.313C453.439 117.904 455.155 118.199 457.05 118.199C459.151 118.199 461.018 117.849 462.652 117.148C464.3 116.434 465.591 115.446 466.525 114.183C467.472 112.906 467.946 111.423 467.946 109.734C467.946 108.306 467.575 107.111 466.833 106.15C466.092 105.175 465.055 104.358 463.723 103.699C462.405 103.04 460.874 102.456 459.13 101.948L454.084 100.465C450.775 99.4766 448.207 98.1103 446.381 96.3665C444.555 94.6226 443.642 92.3982 443.642 89.6932C443.642 87.4276 444.246 85.4366 445.454 83.7202C446.676 81.9901 448.324 80.6444 450.397 79.6832C452.484 78.7083 454.826 78.2209 457.421 78.2209C460.043 78.2209 462.364 78.7015 464.382 79.6626C466.401 80.6238 468.001 81.9489 469.181 83.6378C470.376 85.313 471.015 87.2216 471.097 89.3636H467.369ZM478.388 82.2784V78.8182H508.974V82.2784H495.607V121H491.755V82.2784H478.388ZM517.645 121V78.8182H542.114V82.2784H521.497V98.1584H540.816V101.619H521.497V117.54H542.526V121H517.645ZM552.083 121V78.8182H565.697C568.69 78.8182 571.19 79.3606 573.194 80.4453C575.213 81.5163 576.73 83.0062 577.746 84.9148C578.776 86.8097 579.291 88.986 579.291 91.4439C579.291 93.9018 578.776 96.0713 577.746 97.9524C576.73 99.8336 575.22 101.303 573.215 102.36C571.21 103.417 568.725 103.946 565.759 103.946H554.163V100.424H565.656C567.853 100.424 569.679 100.06 571.135 99.3324C572.604 98.6046 573.695 97.5679 574.409 96.2223C575.137 94.8767 575.501 93.2839 575.501 91.4439C575.501 89.6039 575.137 87.9974 574.409 86.6243C573.682 85.2375 572.583 84.1664 571.114 83.4112C569.658 82.656 567.819 82.2784 565.594 82.2784H555.934V121H552.083ZM570.681 101.969L581.062 121H576.613L566.336 101.969H570.681Z" fill="#111111"/>
</svg>
