<svg width="644" height="140" viewBox="0 0 644 140" fill="none" xmlns="http://www.w3.org/2000/svg">
<rect x="20" y="87" width="35" height="35" fill="#EFBD43"/>
<rect x="55" y="122" width="35" height="35" transform="rotate(-90 55 122)" fill="#9A2479"/>
<rect x="90" y="87" width="35" height="35" transform="rotate(-180 90 87)" fill="#24A9DA"/>
<path d="M73.5 37C69.1239 37 64.9271 35.2616 61.8327 32.1673C58.7384 29.0729 57 24.8761 57 20.5C57 16.1239 58.7384 11.9271 61.8327 8.83274C64.9271 5.73839 69.1239 4 73.5 4L73.5 20.5L73.5 37Z" fill="#273A92"/>
<rect x="125" y="87" width="35" height="35" transform="rotate(90 125 87)" fill="#F0544A"/>
<path d="M166.999 18.8182V61H160.634V18.8182H166.999ZM180.695 18.8182L190.788 35.3161H191.117L201.21 18.8182H208.583L195.442 39.9091L208.665 61H201.251L191.117 44.7287H190.788L180.654 61H173.239L186.689 39.9091L173.322 18.8182H180.695ZM250.404 39.9091C250.404 44.4129 249.581 48.285 247.933 51.5256C246.285 54.7524 244.026 57.2377 241.157 58.9815C238.301 60.7116 235.053 61.5767 231.414 61.5767C227.762 61.5767 224.501 60.7116 221.631 58.9815C218.775 57.2377 216.523 54.7455 214.875 51.505C213.228 48.2644 212.404 44.3991 212.404 39.9091C212.404 35.4053 213.228 31.54 214.875 28.3132C216.523 25.0727 218.775 22.5874 221.631 20.8572C224.501 19.1134 227.762 18.2415 231.414 18.2415C235.053 18.2415 238.301 19.1134 241.157 20.8572C244.026 22.5874 246.285 25.0727 247.933 28.3132C249.581 31.54 250.404 35.4053 250.404 39.9091ZM244.102 39.9091C244.102 36.4763 243.546 33.5859 242.434 31.2379C241.335 28.8762 239.825 27.0911 237.902 25.8828C235.994 24.6607 233.831 24.0497 231.414 24.0497C228.984 24.0497 226.815 24.6607 224.906 25.8828C222.997 27.0911 221.487 28.8762 220.375 31.2379C219.276 33.5859 218.727 36.4763 218.727 39.9091C218.727 43.3419 219.276 46.2391 220.375 48.6009C221.487 50.9489 222.997 52.7339 224.906 53.956C226.815 55.1643 228.984 55.7685 231.414 55.7685C233.831 55.7685 235.994 55.1643 237.902 53.956C239.825 52.7339 241.335 50.9489 242.434 48.6009C243.546 46.2391 244.102 43.3419 244.102 39.9091ZM258.339 61V18.8182H273.375C276.643 18.8182 279.355 19.3812 281.51 20.5071C283.68 21.633 285.3 23.1915 286.371 25.1825C287.442 27.1598 287.978 29.446 287.978 32.0412C287.978 34.6226 287.435 36.8951 286.351 38.8587C285.28 40.8085 283.659 42.3258 281.49 43.4105C279.334 44.4953 276.622 45.0376 273.354 45.0376H261.964V39.5589H272.778C274.837 39.5589 276.512 39.2637 277.803 38.6733C279.108 38.0829 280.062 37.2247 280.666 36.0987C281.27 34.9728 281.572 33.6203 281.572 32.0412C281.572 30.4484 281.263 29.0684 280.645 27.9013C280.041 26.7341 279.087 25.8416 277.782 25.2237C276.492 24.5921 274.796 24.2763 272.695 24.2763H264.704V61H258.339ZM279.162 41.9688L289.584 61H282.334L272.118 41.9688H279.162ZM299.285 61H292.53L307.709 18.8182H315.062L330.242 61H323.486L311.561 26.4801H311.231L299.285 61ZM300.418 44.4815H322.333V49.8366H300.418V44.4815Z" fill="#111111"/>
<path d="M195.607 117.313L195.051 130.969H191.261V121H188.069V117.313H195.607ZM161.602 121V78.8182H165.289V117.437H188.275V78.8182H191.941V121H161.602ZM203.913 121V78.8182H228.382V82.2784H207.764V98.1584H227.084V101.619H207.764V117.54H228.794V121H203.913ZM238.35 121V78.8182H242.202V98.1584H266.135V78.8182H269.987V121H266.135V101.619H242.202V121H238.35ZM278.617 82.2784V78.8182H309.203V82.2784H295.835V121H291.984V82.2784H278.617ZM317.874 121V78.8182H331.488C334.481 78.8182 336.981 79.3949 338.985 80.5483C341.004 81.688 342.521 83.2396 343.537 85.2031C344.567 87.1667 345.082 89.3774 345.082 91.8352C345.082 94.2931 344.574 96.5107 343.558 98.4879C342.542 100.451 341.031 102.01 339.026 103.163C337.022 104.303 334.53 104.873 331.55 104.873H320.84V101.413H331.447C333.658 101.413 335.491 101.001 336.946 100.177C338.402 99.3393 339.486 98.1996 340.2 96.7578C340.928 95.3161 341.292 93.6752 341.292 91.8352C341.292 89.9953 340.928 88.3544 340.2 86.9126C339.486 85.4709 338.395 84.3381 336.926 83.5142C335.47 82.6903 333.623 82.2784 331.385 82.2784H321.725V121H317.874ZM400.528 78.8182V121H396.697V82.2784H373.979V121H370.127V78.8182H400.528ZM446.026 99.9091C446.026 104.303 445.243 108.127 443.678 111.381C442.112 114.622 439.957 117.135 437.21 118.92C434.478 120.691 431.334 121.577 427.777 121.577C424.221 121.577 421.07 120.691 418.323 118.92C415.591 117.135 413.442 114.622 411.877 111.381C410.325 108.127 409.549 104.303 409.549 99.9091C409.549 95.5152 410.325 91.6979 411.877 88.4574C413.442 85.2031 415.598 82.6903 418.344 80.919C421.09 79.134 424.235 78.2415 427.777 78.2415C431.334 78.2415 434.478 79.134 437.21 80.919C439.957 82.6903 442.112 85.2031 443.678 88.4574C445.243 91.6979 446.026 95.5152 446.026 99.9091ZM442.277 99.9091C442.277 96.133 441.646 92.8994 440.382 90.2081C439.119 87.5031 437.396 85.4366 435.213 84.0085C433.029 82.5805 430.551 81.8665 427.777 81.8665C425.017 81.8665 422.546 82.5805 420.362 84.0085C418.179 85.4366 416.449 87.4962 415.172 90.1875C413.909 92.8788 413.277 96.1193 413.277 99.9091C413.277 103.685 413.909 106.919 415.172 109.61C416.435 112.301 418.159 114.368 420.342 115.81C422.525 117.238 425.003 117.952 427.777 117.952C430.551 117.952 433.029 117.238 435.213 115.81C437.41 114.382 439.14 112.322 440.403 109.631C441.666 106.926 442.291 103.685 442.277 99.9091ZM455.341 78.8182H459.789L475.093 115.562H475.463L490.767 78.8182H495.216V121H491.591V86.9538H491.261L477.029 121H473.527L459.295 86.9538H458.966V121H455.341V78.8182ZM541.012 99.9091C541.012 104.303 540.229 108.127 538.664 111.381C537.099 114.622 534.943 117.135 532.197 118.92C529.464 120.691 526.32 121.577 522.763 121.577C519.207 121.577 516.056 120.691 513.31 118.92C510.577 117.135 508.428 114.622 506.863 111.381C505.311 108.127 504.536 104.303 504.536 99.9091C504.536 95.5152 505.311 91.6979 506.863 88.4574C508.428 85.2031 510.584 82.6903 513.33 80.919C516.076 79.134 519.221 78.2415 522.763 78.2415C526.32 78.2415 529.464 79.134 532.197 80.919C534.943 82.6903 537.099 85.2031 538.664 88.4574C540.229 91.6979 541.012 95.5152 541.012 99.9091ZM537.263 99.9091C537.263 96.133 536.632 92.8994 535.369 90.2081C534.105 87.5031 532.382 85.4366 530.199 84.0085C528.016 82.5805 525.537 81.8665 522.763 81.8665C520.004 81.8665 517.532 82.5805 515.349 84.0085C513.165 85.4366 511.435 87.4962 510.158 90.1875C508.895 92.8788 508.263 96.1193 508.263 99.9091C508.263 103.685 508.895 106.919 510.158 109.61C511.422 112.301 513.145 114.368 515.328 115.81C517.511 117.238 519.99 117.952 522.763 117.952C525.537 117.952 528.016 117.238 530.199 115.81C532.396 114.382 534.126 112.322 535.389 109.631C536.652 106.926 537.277 103.685 537.263 99.9091ZM596.978 117.54L596.401 130.969H592.776V121H588.884V117.54H596.978ZM550.327 78.8182H554.178V117.437H569.997V78.8182H573.848V117.437H589.687V78.8182H593.518V121H550.327V78.8182ZM605.268 78.8182H609.058V114.183H609.388L634.371 78.8182H638.12V121H634.268V85.6768H633.939L608.996 121H605.268V78.8182Z" fill="#111111"/>
</svg>
