<svg width="332" height="140" viewBox="0 0 332 140" fill="none" xmlns="http://www.w3.org/2000/svg">
<rect width="140" height="140" fill="white"/>
<rect x="20" y="87" width="35" height="35" fill="#EFBD43"/>
<rect x="55" y="122" width="35" height="35" transform="rotate(-90 55 122)" fill="#9A2479"/>
<rect x="90" y="87" width="35" height="35" transform="rotate(-180 90 87)" fill="#24A9DA"/>
<path d="M73.5 37C69.1239 37 64.9271 35.2616 61.8327 32.1673C58.7384 29.0729 57 24.8761 57 20.5C57 16.1239 58.7384 11.9271 61.8327 8.83274C64.9271 5.73839 69.1239 4 73.5 4L73.5 20.5L73.5 37Z" fill="#273A92"/>
<rect x="125" y="87" width="35" height="35" transform="rotate(90 125 87)" fill="#F0544A"/>
<path d="M166.999 18.8182V61H160.634V18.8182H166.999ZM180.695 18.8182L190.788 35.3161H191.117L201.21 18.8182H208.583L195.442 39.9091L208.665 61H201.251L191.117 44.7287H190.788L180.654 61H173.239L186.689 39.9091L173.322 18.8182H180.695ZM250.404 39.9091C250.404 44.4129 249.581 48.285 247.933 51.5256C246.285 54.7524 244.026 57.2377 241.157 58.9815C238.301 60.7116 235.053 61.5767 231.414 61.5767C227.762 61.5767 224.501 60.7116 221.631 58.9815C218.775 57.2377 216.523 54.7455 214.875 51.505C213.228 48.2644 212.404 44.3991 212.404 39.9091C212.404 35.4053 213.228 31.54 214.875 28.3132C216.523 25.0727 218.775 22.5874 221.631 20.8572C224.501 19.1134 227.762 18.2415 231.414 18.2415C235.053 18.2415 238.301 19.1134 241.157 20.8572C244.026 22.5874 246.285 25.0727 247.933 28.3132C249.581 31.54 250.404 35.4053 250.404 39.9091ZM244.102 39.9091C244.102 36.4763 243.546 33.5859 242.434 31.2379C241.335 28.8762 239.825 27.0911 237.902 25.8828C235.994 24.6607 233.831 24.0497 231.414 24.0497C228.984 24.0497 226.815 24.6607 224.906 25.8828C222.997 27.0911 221.487 28.8762 220.375 31.2379C219.276 33.5859 218.727 36.4763 218.727 39.9091C218.727 43.3419 219.276 46.2391 220.375 48.6009C221.487 50.9489 222.997 52.7339 224.906 53.956C226.815 55.1643 228.984 55.7685 231.414 55.7685C233.831 55.7685 235.994 55.1643 237.902 53.956C239.825 52.7339 241.335 50.9489 242.434 48.6009C243.546 46.2391 244.102 43.3419 244.102 39.9091ZM258.339 61V18.8182H273.375C276.643 18.8182 279.355 19.3812 281.51 20.5071C283.68 21.633 285.3 23.1915 286.371 25.1825C287.442 27.1598 287.978 29.446 287.978 32.0412C287.978 34.6226 287.435 36.8951 286.351 38.8587C285.28 40.8085 283.659 42.3258 281.49 43.4105C279.334 44.4953 276.622 45.0376 273.354 45.0376H261.964V39.5589H272.778C274.837 39.5589 276.512 39.2637 277.803 38.6733C279.108 38.0829 280.062 37.2247 280.666 36.0987C281.27 34.9728 281.572 33.6203 281.572 32.0412C281.572 30.4484 281.263 29.0684 280.645 27.9013C280.041 26.7341 279.087 25.8416 277.782 25.2237C276.492 24.5921 274.796 24.2763 272.695 24.2763H264.704V61H258.339ZM279.162 41.9688L289.584 61H282.334L272.118 41.9688H279.162ZM299.285 61H292.53L307.709 18.8182H315.062L330.242 61H323.486L311.561 26.4801H311.231L299.285 61ZM300.418 44.4815H322.333V49.8366H300.418V44.4815Z" fill="#111111"/>
<path d="M161.602 121V78.8182H165.454V98.1584H189.387V78.8182H193.239V121H189.387V101.619H165.454V121H161.602ZM204.423 121V78.8182H228.891V82.2784H208.274V98.1584H227.594V101.619H208.274V117.54H229.303V121H204.423ZM238.86 121V78.8182H242.712V117.54H262.814V121H238.86ZM271.485 121V78.8182H285.099C288.093 78.8182 290.592 79.3949 292.597 80.5483C294.615 81.688 296.132 83.2396 297.148 85.2031C298.178 87.1667 298.693 89.3774 298.693 91.8352C298.693 94.2931 298.185 96.5107 297.169 98.4879C296.153 100.451 294.643 102.01 292.638 103.163C290.633 104.303 288.141 104.873 285.161 104.873H274.451V101.413H285.058C287.269 101.413 289.102 101.001 290.558 100.177C292.013 99.3393 293.098 98.1996 293.812 96.7578C294.54 95.3161 294.903 93.6752 294.903 91.8352C294.903 89.9953 294.54 88.3544 293.812 86.9126C293.098 85.4709 292.006 84.3381 290.537 83.5142C289.081 82.6903 287.235 82.2784 284.996 82.2784H275.337V121H271.485Z" fill="#111111"/>
</svg>
